<svg xmlns="http://www.w3.org/2000/svg" xmlns:xlink="http://www.w3.org/1999/xlink" width="40" zoomAndPan="magnify" viewBox="0 0 30 30.000001" height="40" preserveAspectRatio="xMidYMid meet" version="1.0"><defs><clipPath id="e544a48cc3"><path d="M 8 2.902344 L 29.515625 2.902344 L 29.515625 20 L 8 20 Z M 8 2.902344 " clip-rule="nonzero"/></clipPath><clipPath id="c41d8b496e"><path d="M 0.484375 3 L 14 3 L 14 25.402344 L 0.484375 25.402344 Z M 0.484375 3 " clip-rule="nonzero"/></clipPath><clipPath id="c8cf89c095"><path d="M 0.484375 6 L 10 6 L 10 8 L 0.484375 8 Z M 0.484375 6 " clip-rule="nonzero"/></clipPath><clipPath id="887e92ecf8"><path d="M 0.484375 20 L 14 20 L 14 22 L 0.484375 22 Z M 0.484375 20 " clip-rule="nonzero"/></clipPath></defs><g clip-path="url(#e544a48cc3)"><path fill="#03be66" d="M 9.550781 19.734375 C 9.46875 19.734375 9.390625 19.703125 9.332031 19.644531 C 9.242188 19.554688 9.21875 19.421875 9.273438 19.308594 L 11.042969 15.476562 C 9.347656 14.09375 8.421875 12.328125 8.421875 10.476562 C 8.421875 8.433594 9.53125 6.519531 11.542969 5.089844 C 13.527344 3.679688 16.160156 2.902344 18.957031 2.902344 C 21.75 2.902344 24.382812 3.679688 26.367188 5.089844 C 28.382812 6.519531 29.492188 8.433594 29.492188 10.476562 C 29.492188 12.515625 28.382812 14.429688 26.367188 15.859375 C 24.382812 17.269531 21.75 18.046875 18.957031 18.046875 C 17.511719 18.046875 16.109375 17.839844 14.785156 17.429688 L 9.671875 19.707031 C 9.632812 19.726562 9.589844 19.734375 9.550781 19.734375 Z M 18.957031 3.507812 C 13.484375 3.507812 9.03125 6.632812 9.03125 10.476562 C 9.03125 12.203125 9.945312 13.863281 11.605469 15.152344 C 11.714844 15.238281 11.753906 15.386719 11.695312 15.515625 L 10.164062 18.828125 L 14.640625 16.832031 C 14.710938 16.800781 14.789062 16.796875 14.859375 16.820312 C 16.15625 17.234375 17.53125 17.445312 18.957031 17.445312 C 24.429688 17.445312 28.882812 14.316406 28.882812 10.476562 C 28.882812 6.632812 24.429688 3.507812 18.957031 3.507812 Z M 18.957031 3.507812 " fill-opacity="1" fill-rule="nonzero"/></g><path fill="#03be66" d="M 5.308594 14.097656 C 3.703125 14.097656 2.402344 12.808594 2.402344 11.222656 C 2.402344 9.632812 3.703125 8.34375 5.308594 8.34375 C 6.910156 8.34375 8.210938 9.632812 8.210938 11.222656 C 8.210938 12.808594 6.910156 14.097656 5.308594 14.097656 Z M 5.308594 8.945312 C 4.039062 8.945312 3.011719 9.964844 3.011719 11.222656 C 3.011719 12.476562 4.039062 13.496094 5.308594 13.496094 C 6.574219 13.496094 7.605469 12.476562 7.605469 11.222656 C 7.605469 9.964844 6.574219 8.945312 5.308594 8.945312 Z M 5.308594 8.945312 " fill-opacity="1" fill-rule="nonzero"/><path fill="#03be66" d="M 8.441406 19.695312 L 2.171875 19.695312 C 2.003906 19.695312 1.867188 19.5625 1.867188 19.394531 L 1.867188 15.515625 C 1.867188 15.425781 1.910156 15.339844 1.980469 15.28125 C 2.921875 14.535156 4.101562 14.125 5.308594 14.125 C 6.527344 14.125 7.679688 14.523438 8.632812 15.28125 C 8.703125 15.339844 8.746094 15.425781 8.746094 15.515625 L 8.746094 19.394531 C 8.746094 19.5625 8.609375 19.695312 8.441406 19.695312 Z M 2.476562 19.09375 L 8.136719 19.09375 L 8.136719 15.664062 C 7.316406 15.050781 6.339844 14.726562 5.308594 14.726562 C 4.273438 14.726562 3.296875 15.050781 2.476562 15.664062 Z M 2.476562 19.09375 " fill-opacity="1" fill-rule="nonzero"/><path fill="#03be66" d="M 7.035156 24.003906 C 6.316406 24.003906 5.730469 23.421875 5.730469 22.710938 C 5.730469 22 6.316406 21.421875 7.035156 21.421875 C 7.753906 21.421875 8.335938 22 8.335938 22.710938 C 8.335938 23.421875 7.753906 24.003906 7.035156 24.003906 Z M 7.035156 22.023438 C 6.652344 22.023438 6.339844 22.332031 6.339844 22.710938 C 6.339844 23.089844 6.652344 23.398438 7.035156 23.398438 C 7.417969 23.398438 7.726562 23.089844 7.726562 22.710938 C 7.726562 22.332031 7.417969 22.023438 7.035156 22.023438 Z M 7.035156 22.023438 " fill-opacity="1" fill-rule="nonzero"/><g clip-path="url(#c41d8b496e)"><path fill="#03be66" d="M 10.8125 25.402344 L 3.257812 25.402344 C 1.734375 25.402344 0.5 24.179688 0.5 22.671875 L 0.5 5.972656 C 0.5 4.46875 1.734375 3.242188 3.257812 3.242188 L 10.8125 3.242188 C 11.742188 3.242188 12.601562 3.703125 13.113281 4.46875 L 12.605469 4.800781 C 12.207031 4.203125 11.535156 3.84375 10.8125 3.84375 L 3.257812 3.84375 C 2.070312 3.84375 1.109375 4.800781 1.109375 5.972656 L 1.109375 22.671875 C 1.109375 23.847656 2.070312 24.800781 3.257812 24.800781 L 10.8125 24.800781 C 11.996094 24.800781 12.960938 23.847656 12.960938 22.671875 L 12.960938 17.777344 L 13.570312 17.777344 L 13.570312 22.671875 C 13.570312 24.179688 12.332031 25.402344 10.8125 25.402344 Z M 10.8125 25.402344 " fill-opacity="1" fill-rule="nonzero"/></g><g clip-path="url(#c8cf89c095)"><path fill="#03be66" d="M 0.804688 6.667969 L 9.992188 6.667969 L 9.992188 7.273438 L 0.804688 7.273438 Z M 0.804688 6.667969 " fill-opacity="1" fill-rule="nonzero"/></g><g clip-path="url(#887e92ecf8)"><path fill="#03be66" d="M 0.730469 20.429688 L 13.265625 20.429688 L 13.265625 21.03125 L 0.730469 21.03125 Z M 0.730469 20.429688 " fill-opacity="1" fill-rule="nonzero"/></g><path fill="#03be66" d="M 9.5625 5.625 L 4.507812 5.625 C 4.339844 5.625 4.203125 5.492188 4.203125 5.324219 C 4.203125 5.15625 4.339844 5.023438 4.507812 5.023438 L 9.5625 5.023438 C 9.730469 5.023438 9.867188 5.15625 9.867188 5.324219 C 9.867188 5.492188 9.730469 5.625 9.5625 5.625 Z M 9.5625 5.625 " fill-opacity="1" fill-rule="nonzero"/><path fill="#03be66" d="M 4.726562 23.011719 L 2.359375 23.011719 C 2.191406 23.011719 2.054688 22.878906 2.054688 22.710938 C 2.054688 22.546875 2.191406 22.410156 2.359375 22.410156 L 4.726562 22.410156 C 4.898438 22.410156 5.03125 22.546875 5.03125 22.710938 C 5.03125 22.878906 4.898438 23.011719 4.726562 23.011719 Z M 4.726562 23.011719 " fill-opacity="1" fill-rule="nonzero"/><path fill="#03be66" d="M 11.707031 23.011719 L 9.339844 23.011719 C 9.171875 23.011719 9.035156 22.878906 9.035156 22.710938 C 9.035156 22.546875 9.171875 22.410156 9.339844 22.410156 L 11.707031 22.410156 C 11.875 22.410156 12.011719 22.546875 12.011719 22.710938 C 12.011719 22.878906 11.875 23.011719 11.707031 23.011719 Z M 11.707031 23.011719 " fill-opacity="1" fill-rule="nonzero"/><path fill="#03be66" d="M 16.398438 14.160156 L 14.390625 14.160156 C 14.222656 14.160156 14.089844 14.027344 14.089844 13.859375 L 14.089844 9.566406 C 14.089844 9.398438 14.222656 9.265625 14.390625 9.265625 L 16.398438 9.265625 C 16.566406 9.265625 16.703125 9.398438 16.703125 9.566406 L 16.703125 13.859375 C 16.703125 14.027344 16.566406 14.160156 16.398438 14.160156 Z M 14.695312 13.558594 L 16.09375 13.558594 L 16.09375 9.867188 L 14.695312 9.867188 Z M 14.695312 13.558594 " fill-opacity="1" fill-rule="nonzero"/><path fill="#03be66" d="M 18.425781 14.160156 C 18.050781 14.160156 17.707031 14.148438 17.425781 14.125 C 16.707031 14.058594 16.347656 13.921875 16.21875 13.664062 C 16.140625 13.515625 16.203125 13.335938 16.355469 13.261719 C 16.496094 13.191406 16.667969 13.238281 16.75 13.371094 C 16.890625 13.472656 17.617188 13.597656 19.101562 13.546875 C 20.238281 13.503906 21.199219 13.378906 21.445312 13.300781 C 21.714844 12.871094 22.957031 10.425781 23.058594 9.863281 C 23.078125 9.753906 23.101562 9.648438 23.125 9.546875 C 23.175781 9.324219 23.257812 8.953125 23.191406 8.871094 C 23.179688 8.859375 23.125 8.832031 22.996094 8.832031 L 19.285156 8.832031 C 19.191406 8.832031 19.101562 8.789062 19.042969 8.714844 C 18.984375 8.636719 18.96875 8.539062 18.992188 8.449219 C 19.207031 7.691406 19.527344 6.429688 19.527344 6.0625 C 19.527344 5.855469 19.457031 5.679688 19.347656 5.605469 C 19.273438 5.558594 19.171875 5.5625 19.054688 5.613281 C 18.730469 5.832031 17.621094 8.015625 16.769531 9.917969 C 16.699219 10.070312 16.519531 10.140625 16.367188 10.070312 C 16.210938 10.003906 16.144531 9.828125 16.210938 9.675781 C 16.214844 9.664062 16.691406 8.601562 17.226562 7.523438 C 18.355469 5.257812 18.644531 5.132812 18.796875 5.066406 C 19.113281 4.925781 19.425781 4.9375 19.679688 5.101562 C 19.964844 5.285156 20.136719 5.644531 20.136719 6.0625 C 20.136719 6.492188 19.851562 7.621094 19.683594 8.230469 L 22.996094 8.230469 C 23.296875 8.230469 23.523438 8.320312 23.667969 8.496094 C 23.914062 8.800781 23.816406 9.246094 23.722656 9.675781 C 23.699219 9.773438 23.675781 9.875 23.660156 9.972656 C 23.523438 10.699219 22.105469 13.4375 21.902344 13.710938 C 21.828125 13.804688 21.710938 13.964844 20.078125 14.09375 C 19.503906 14.136719 18.933594 14.160156 18.425781 14.160156 Z M 18.425781 14.160156 " fill-opacity="1" fill-rule="nonzero"/></svg>