<svg xmlns="http://www.w3.org/2000/svg" xmlns:xlink="http://www.w3.org/1999/xlink" width="40" zoomAndPan="magnify" viewBox="0 0 30 30.000001" height="40" preserveAspectRatio="xMidYMid meet" version="1.0"><defs><clipPath id="a53a1e216a"><path d="M 0.484375 0.453125 L 24 0.453125 L 24 28.761719 L 0.484375 28.761719 Z M 0.484375 0.453125 " clip-rule="nonzero"/></clipPath><clipPath id="83f453ea19"><path d="M 24 5 L 29.515625 5 L 29.515625 28.761719 L 24 28.761719 Z M 24 5 " clip-rule="nonzero"/></clipPath></defs><path fill="#03be66" d="M 12.464844 7.652344 C 12.4375 7.492188 12.296875 7.371094 12.132812 7.371094 L 9.964844 7.371094 C 9.800781 7.371094 9.660156 7.492188 9.632812 7.652344 L 9.421875 8.855469 C 8.953125 8.980469 8.503906 9.167969 8.074219 9.410156 L 7.082031 8.71875 C 6.945312 8.625 6.765625 8.640625 6.648438 8.757812 L 5.121094 10.296875 C 5.003906 10.414062 4.988281 10.597656 5.082031 10.734375 L 5.773438 11.726562 C 5.527344 12.160156 5.339844 12.617188 5.210938 13.082031 L 4.023438 13.296875 C 3.863281 13.324219 3.746094 13.46875 3.746094 13.632812 L 3.746094 15.8125 C 3.746094 15.980469 3.863281 16.121094 4.027344 16.148438 L 5.214844 16.359375 C 5.339844 16.820312 5.527344 17.277344 5.773438 17.714844 L 5.082031 18.707031 C 4.988281 18.84375 5.003906 19.027344 5.121094 19.144531 L 6.648438 20.6875 C 6.761719 20.804688 6.945312 20.824219 7.078125 20.726562 L 8.074219 20.035156 C 8.507812 20.277344 8.957031 20.460938 9.421875 20.585938 L 9.632812 21.792969 C 9.660156 21.953125 9.800781 22.074219 9.964844 22.074219 L 12.132812 22.074219 C 12.296875 22.074219 12.4375 21.953125 12.464844 21.789062 L 12.675781 20.585938 C 13.132812 20.460938 13.582031 20.277344 14.015625 20.035156 L 15.011719 20.726562 C 15.144531 20.820312 15.328125 20.804688 15.445312 20.6875 L 16.976562 19.144531 C 17.089844 19.027344 17.105469 18.84375 17.011719 18.707031 L 16.324219 17.714844 C 16.566406 17.273438 16.753906 16.820312 16.878906 16.359375 L 18.070312 16.148438 C 18.230469 16.121094 18.351562 15.976562 18.351562 15.8125 L 18.351562 13.632812 C 18.351562 13.464844 18.230469 13.324219 18.070312 13.296875 L 16.882812 13.082031 C 16.753906 12.617188 16.566406 12.160156 16.324219 11.726562 L 17.011719 10.730469 C 17.105469 10.597656 17.089844 10.414062 16.976562 10.296875 L 15.441406 8.753906 C 15.328125 8.636719 15.144531 8.621094 15.011719 8.714844 L 14.015625 9.410156 C 13.585938 9.164062 13.136719 8.976562 12.675781 8.851562 Z M 14.226562 10.09375 L 15.164062 9.4375 L 16.296875 10.578125 L 15.644531 11.519531 C 15.566406 11.628906 15.5625 11.773438 15.632812 11.890625 C 15.933594 12.386719 16.148438 12.914062 16.28125 13.460938 C 16.3125 13.59375 16.417969 13.691406 16.550781 13.714844 L 17.671875 13.917969 L 17.671875 15.527344 L 16.546875 15.726562 C 16.414062 15.75 16.304688 15.851562 16.277344 15.984375 C 16.152344 16.519531 15.9375 17.050781 15.632812 17.558594 C 15.5625 17.671875 15.566406 17.820312 15.644531 17.929688 L 16.296875 18.867188 L 15.164062 20.007812 L 14.226562 19.351562 C 14.113281 19.273438 13.972656 19.269531 13.855469 19.339844 C 13.359375 19.644531 12.839844 19.859375 12.304688 19.976562 C 12.171875 20.007812 12.070312 20.117188 12.046875 20.253906 L 11.847656 21.394531 L 10.25 21.394531 L 10.046875 20.25 C 10.023438 20.117188 9.921875 20.007812 9.789062 19.976562 C 9.25 19.855469 8.730469 19.640625 8.234375 19.339844 C 8.121094 19.269531 7.976562 19.273438 7.867188 19.351562 L 6.925781 20.007812 L 5.800781 18.867188 L 6.449219 17.929688 C 6.527344 17.816406 6.53125 17.671875 6.460938 17.554688 C 6.15625 17.050781 5.941406 16.523438 5.820312 15.988281 C 5.789062 15.851562 5.683594 15.75 5.546875 15.726562 L 4.421875 15.527344 L 4.421875 13.917969 L 5.546875 13.714844 C 5.679688 13.691406 5.785156 13.589844 5.816406 13.457031 C 5.941406 12.914062 6.160156 12.386719 6.460938 11.890625 C 6.53125 11.777344 6.527344 11.628906 6.449219 11.519531 L 5.800781 10.578125 L 6.925781 9.4375 L 7.867188 10.09375 C 7.976562 10.171875 8.121094 10.175781 8.238281 10.105469 C 8.726562 9.800781 9.246094 9.585938 9.789062 9.464844 C 9.921875 9.433594 10.023438 9.328125 10.046875 9.191406 L 10.25 8.054688 L 11.847656 8.054688 L 12.046875 9.191406 C 12.070312 9.324219 12.171875 9.433594 12.304688 9.464844 C 12.84375 9.585938 13.363281 9.800781 13.855469 10.105469 C 13.96875 10.175781 14.113281 10.171875 14.226562 10.09375 Z M 14.226562 10.09375 " fill-opacity="1" fill-rule="nonzero"/><path fill="#03be66" d="M 7.507812 14.71875 C 7.507812 16.6875 9.097656 18.285156 11.046875 18.285156 C 13 18.285156 14.585938 16.6875 14.585938 14.71875 C 14.585938 12.757812 13 11.160156 11.046875 11.160156 C 9.097656 11.160156 7.507812 12.757812 7.507812 14.71875 Z M 13.910156 14.71875 C 13.910156 16.3125 12.625 17.605469 11.046875 17.605469 C 9.46875 17.605469 8.183594 16.3125 8.183594 14.71875 C 8.183594 13.132812 9.46875 11.839844 11.046875 11.839844 C 12.625 11.839844 13.910156 13.132812 13.910156 14.71875 Z M 13.910156 14.71875 " fill-opacity="1" fill-rule="nonzero"/><g clip-path="url(#a53a1e216a)"><path fill="#03be66" d="M 23.46875 6.84375 L 17.21875 0.554688 C 17.15625 0.492188 17.066406 0.453125 16.976562 0.453125 C 16.960938 0.453125 16.945312 0.460938 16.929688 0.464844 L 1.542969 0.464844 C 0.996094 0.464844 0.554688 0.910156 0.554688 1.457031 L 0.554688 27.71875 C 0.554688 28.265625 0.996094 28.714844 1.542969 28.714844 L 22.621094 28.714844 C 23.164062 28.714844 23.609375 28.265625 23.609375 27.71875 L 23.609375 7.171875 C 23.609375 7.15625 23.617188 7.140625 23.617188 7.125 C 23.617188 7.007812 23.558594 6.902344 23.46875 6.84375 Z M 17.316406 1.625 L 22.441406 6.785156 L 17.625 6.785156 C 17.453125 6.785156 17.316406 6.644531 17.316406 6.472656 Z M 22.621094 28.03125 L 1.542969 28.03125 C 1.371094 28.03125 1.230469 27.890625 1.230469 27.71875 L 1.230469 1.457031 C 1.230469 1.285156 1.371094 1.144531 1.542969 1.144531 L 16.636719 1.144531 L 16.636719 6.472656 C 16.636719 7.019531 17.082031 7.464844 17.625 7.464844 L 22.929688 7.464844 L 22.929688 27.71875 C 22.929688 27.890625 22.792969 28.03125 22.621094 28.03125 Z M 22.621094 28.03125 " fill-opacity="1" fill-rule="nonzero"/></g><path fill="#03be66" d="M 2.566406 3.382812 L 9.648438 3.382812 C 9.835938 3.382812 9.984375 3.230469 9.984375 3.039062 C 9.984375 2.851562 9.835938 2.699219 9.648438 2.699219 L 2.566406 2.699219 C 2.378906 2.699219 2.226562 2.851562 2.226562 3.039062 C 2.226562 3.230469 2.378906 3.382812 2.566406 3.382812 Z M 2.566406 3.382812 " fill-opacity="1" fill-rule="nonzero"/><path fill="#03be66" d="M 2.566406 5.800781 L 13.578125 5.800781 C 13.765625 5.800781 13.917969 5.648438 13.917969 5.460938 C 13.917969 5.273438 13.765625 5.121094 13.578125 5.121094 L 2.566406 5.121094 C 2.378906 5.121094 2.226562 5.273438 2.226562 5.460938 C 2.226562 5.648438 2.378906 5.800781 2.566406 5.800781 Z M 2.566406 5.800781 " fill-opacity="1" fill-rule="nonzero"/><path fill="#03be66" d="M 2.375 24.097656 C 2.375 24.285156 2.527344 24.4375 2.714844 24.4375 L 21.449219 24.4375 C 21.636719 24.4375 21.789062 24.285156 21.789062 24.097656 C 21.789062 23.910156 21.636719 23.757812 21.449219 23.757812 L 2.714844 23.757812 C 2.527344 23.757812 2.375 23.910156 2.375 24.097656 Z M 2.375 24.097656 " fill-opacity="1" fill-rule="nonzero"/><path fill="#03be66" d="M 21.507812 26.042969 L 2.65625 26.042969 C 2.46875 26.042969 2.316406 26.195312 2.316406 26.382812 C 2.316406 26.570312 2.46875 26.722656 2.65625 26.722656 L 21.507812 26.722656 C 21.691406 26.722656 21.84375 26.570312 21.84375 26.382812 C 21.84375 26.195312 21.691406 26.042969 21.507812 26.042969 Z M 21.507812 26.042969 " fill-opacity="1" fill-rule="nonzero"/><g clip-path="url(#83f453ea19)"><path fill="#03be66" d="M 29.109375 7.84375 L 27.917969 7.84375 L 27.917969 7.300781 C 27.917969 6.300781 27.109375 5.484375 26.117188 5.484375 C 25.121094 5.484375 24.3125 6.300781 24.3125 7.300781 L 24.3125 26.066406 C 24.3125 26.132812 24.339844 26.195312 24.375 26.246094 L 24.375 26.25 L 25.828125 28.554688 C 25.960938 28.765625 26.269531 28.765625 26.402344 28.554688 L 27.859375 26.25 C 27.894531 26.195312 27.917969 26.136719 27.917969 26.066406 L 27.917969 8.523438 L 28.769531 8.523438 L 28.769531 15.550781 C 28.769531 15.738281 28.921875 15.894531 29.109375 15.894531 C 29.292969 15.894531 29.445312 15.738281 29.445312 15.550781 L 29.445312 8.183594 C 29.445312 7.996094 29.292969 7.84375 29.109375 7.84375 Z M 27.242188 25.726562 L 24.992188 25.726562 L 24.992188 8.523438 L 27.242188 8.523438 Z M 24.992188 7.300781 C 24.992188 6.675781 25.496094 6.167969 26.117188 6.167969 C 26.738281 6.167969 27.242188 6.675781 27.242188 7.300781 L 27.242188 7.84375 L 24.992188 7.84375 Z M 26.117188 27.738281 L 25.277344 26.40625 L 26.957031 26.40625 Z M 26.117188 27.738281 " fill-opacity="1" fill-rule="nonzero"/></g></svg>