<svg xmlns="http://www.w3.org/2000/svg" xmlns:xlink="http://www.w3.org/1999/xlink" width="40" zoomAndPan="magnify" viewBox="0 0 30 30.000001" height="40" preserveAspectRatio="xMidYMid meet" version="1.0"><defs><clipPath id="f376a9c4af"><path d="M 1.390625 2 L 28.972656 2 L 28.972656 29 L 1.390625 29 Z M 1.390625 2 " clip-rule="nonzero"/></clipPath></defs><path fill="#03be66" d="M 12.816406 18.601562 L 8.207031 19.820312 C 7.996094 19.878906 7.828125 20.121094 7.828125 20.359375 L 7.828125 23.195312 C 7.828125 23.433594 7.996094 23.585938 8.207031 23.53125 L 12.8125 22.3125 L 12.8125 21.261719 L 8.992188 22.273438 L 8.992188 20.660156 L 12.8125 19.652344 Z M 22.34375 16.117188 C 22.296875 16.109375 22.246094 16.109375 22.195312 16.121094 L 19.253906 16.902344 L 20.488281 17.625 L 21.414062 17.375 L 21.414062 18.164062 L 22.578125 18.847656 L 22.578125 16.457031 C 22.578125 16.277344 22.484375 16.148438 22.34375 16.117188 Z M 22.34375 16.117188 " fill-opacity="1" fill-rule="evenodd"/><g clip-path="url(#f376a9c4af)"><path fill="#03be66" d="M 8.019531 7.125 L 4.265625 8.121094 C 2.722656 8.527344 1.460938 10.101562 1.460938 11.625 L 1.460938 26.492188 C 1.460938 28.015625 2.722656 28.925781 4.265625 28.515625 L 13.175781 26.160156 C 12.90625 25.785156 12.804688 25.503906 12.804688 25.101562 L 4.265625 27.359375 C 3.347656 27.605469 2.632812 27.085938 2.632812 26.183594 L 2.632812 11.316406 C 2.632812 10.414062 3.347656 9.519531 4.265625 9.273438 L 8.019531 8.28125 Z M 26.972656 2.238281 C 26.710938 2.226562 26.429688 2.257812 26.140625 2.332031 L 22.386719 3.328125 L 22.386719 4.484375 L 26.140625 3.492188 C 27.058594 3.25 27.773438 3.765625 27.773438 4.667969 L 27.773438 19.535156 C 27.773438 20.4375 27.058594 21.332031 26.140625 21.578125 L 25.027344 21.871094 L 24.417969 23.1875 L 26.140625 22.730469 C 27.683594 22.324219 28.945312 20.746094 28.945312 19.226562 L 28.945312 4.359375 C 28.949219 3.121094 28.113281 2.289062 26.972656 2.238281 Z M 26.972656 2.238281 " fill-opacity="1" fill-rule="evenodd"/></g><path fill="#03be66" d="M 15.203125 0.382812 C 12.132812 1.191406 9.640625 4.308594 9.640625 7.339844 C 9.640625 8.792969 10.226562 10.039062 11.269531 10.792969 C 12.3125 11.542969 13.726562 11.75 15.203125 11.359375 C 16.675781 10.96875 18.09375 10.015625 19.136719 8.710938 C 20.179688 7.40625 20.765625 5.855469 20.765625 4.398438 C 20.765625 2.941406 20.179688 1.703125 19.136719 0.949219 C 18.09375 0.195312 16.675781 -0.0078125 15.203125 0.382812 Z M 15.355469 2.609375 C 15.449219 2.585938 15.542969 2.574219 15.632812 2.574219 C 16.394531 2.554688 16.859375 3.191406 16.675781 3.996094 C 16.496094 4.800781 15.734375 5.46875 14.976562 5.488281 C 14.21875 5.507812 13.75 4.875 13.929688 4.066406 C 14.085938 3.375 14.683594 2.761719 15.355469 2.609375 Z M 13.886719 6.746094 L 16.519531 6.050781 C 17.128906 5.886719 17.679688 6.132812 17.855469 6.636719 L 18.074219 7.261719 C 18.292969 7.902344 17.742188 8.453125 16.96875 8.851562 C 15.800781 9.457031 14.632812 9.765625 13.4375 9.78125 C 12.664062 9.796875 12.109375 9.539062 12.335938 8.78125 L 12.554688 8.035156 C 12.726562 7.441406 13.277344 6.90625 13.886719 6.746094 Z M 13.886719 6.746094 " fill-opacity="1" fill-rule="evenodd"/><path fill="#03be66" d="M 22.34375 10.695312 C 22.296875 10.683594 22.246094 10.6875 22.195312 10.699219 L 8.207031 14.398438 C 7.996094 14.457031 7.828125 14.695312 7.828125 14.9375 L 7.828125 17.773438 C 7.828125 18.011719 7.996094 18.160156 8.207031 18.105469 L 12.945312 16.851562 L 13.53125 15.648438 L 8.992188 16.847656 L 8.992188 15.238281 L 21.417969 11.953125 L 21.417969 13.5625 L 16 14.996094 L 17.234375 15.71875 L 22.195312 14.410156 C 22.40625 14.351562 22.578125 14.109375 22.578125 13.871094 L 22.578125 11.035156 C 22.578125 10.855469 22.484375 10.726562 22.34375 10.695312 Z M 22.34375 10.695312 " fill-opacity="1" fill-rule="evenodd"/><path fill="#03be66" d="M 15.484375 17 L 22.726562 21.039062 L 20.804688 21.648438 C 20.539062 21.734375 20.414062 22.042969 20.554688 22.285156 L 22.644531 25.933594 L 20.410156 26.566406 L 18.042969 22.699219 C 17.941406 22.527344 17.734375 22.445312 17.539062 22.503906 L 15.5 23.113281 Z M 14.644531 15.949219 L 13.9375 17.414062 C 13.910156 17.472656 13.894531 17.53125 13.894531 17.597656 L 13.886719 25.160156 C 13.882812 25.460938 14.171875 25.675781 14.460938 25.59375 L 16.75 24.910156 L 19.117188 28.777344 C 19.222656 28.949219 19.429688 29.027344 19.628906 28.96875 L 22.730469 28.089844 C 22.851562 28.054688 22.953125 27.96875 23.007812 27.855469 L 23.699219 26.414062 C 23.78125 26.28125 23.78125 26.117188 23.699219 25.980469 L 22.207031 23.449219 L 23.132812 23.203125 C 23.253906 23.171875 23.339844 23.035156 23.390625 22.925781 L 24.089844 21.398438 L 24.09375 21.394531 C 24.09375 21.390625 24.09375 21.390625 24.097656 21.386719 C 24.1875 21.195312 24.132812 20.96875 23.960938 20.839844 L 15.316406 15.785156 C 15.019531 15.609375 14.757812 15.726562 14.644531 15.949219 Z M 14.644531 15.949219 " fill-opacity="1" fill-rule="nonzero"/></svg>